<svg xmlns="http://www.w3.org/2000/svg" xmlns:xlink="http://www.w3.org/1999/xlink" version="1.1" x="0px" y="0px" width="100px" height="100px" viewBox="0 0 100 100" enable-background="new 0 0 100 100" xml:space="preserve">
<g id="Captions">
</g>
<g id="Your_Icon">
	<g>
		<path d="M32.092,75.312V20.727c0-2.566,2.123-4.778,4.865-4.778c0.974,0,2.035,0.354,2.832,0.975L73.406,44.26    C74.468,45.144,75,46.472,75,48.062c-0.091,1.505-0.442,2.921-1.594,3.805L39.789,78.85C39.08,79.646,37.931,80,36.869,80    c-0.531,0-1.326-0.177-1.947-0.53C33.242,78.674,32.092,77.082,32.092,75.312z M41.559,65.315l21.144-17.253L41.559,30.546V65.315    z"/>
	</g>
</g>
</svg>